<svg width="18" height="22" viewBox="0 0 18 22" fill="none" xmlns="http://www.w3.org/2000/svg">
<path fill-rule="evenodd" clip-rule="evenodd" d="M3.5 4.75C3.5 4.61193 3.61193 4.5 3.75 4.5H12.25C12.3881 4.5 12.5 4.61193 12.5 4.75V12.4865C12.5 12.9007 12.8358 13.2365 13.25 13.2365C13.6642 13.2365 14 12.9007 14 12.4865V4.75C14 3.7835 13.2165 3 12.25 3H3.75C2.7835 3 2 3.7835 2 4.75V16.25C2 17.2165 2.7835 18 3.75 18H6.92083C7.33504 18 7.67083 17.6642 7.67083 17.25C7.67083 16.8358 7.33504 16.5 6.92083 16.5H3.75C3.61193 16.5 3.5 16.3881 3.5 16.25V4.75ZM5.75 7C5.33579 7 5 7.33579 5 7.75C5 8.16421 5.33579 8.5 5.75 8.5H10.25C10.6642 8.5 11 8.16421 11 7.75C11 7.33579 10.6642 7 10.25 7H5.75ZM5 10.75C5 10.3358 5.33579 10 5.75 10H7.75C8.16421 10 8.5 10.3358 8.5 10.75C8.5 11.1642 8.16421 11.5 7.75 11.5H5.75C5.33579 11.5 5 11.1642 5 10.75ZM16.774 14.2866C17.0703 13.9972 17.076 13.5223 16.7866 13.226C16.4972 12.9296 16.0223 12.924 15.726 13.2134L11.7003 17.1447L10.2813 15.7206C9.98889 15.4272 9.51402 15.4264 9.22061 15.7187C8.9272 16.0111 8.92636 16.486 9.21873 16.7794L11.1618 18.7294C11.4521 19.0207 11.9229 19.0239 12.2171 18.7366L16.774 14.2866Z" fill="#3D8BFF"/>
</svg>
