<svg width="18" height="15" viewBox="0 0 18 15" fill="none" xmlns="http://www.w3.org/2000/svg">
<path fill-rule="evenodd" clip-rule="evenodd" d="M1.28571 2.5C1.99579 2.5 2.57143 1.94035 2.57143 1.25C2.57143 0.55965 1.99579 0 1.28571 0C0.57564 0 0 0.55965 0 1.25C0 1.94035 0.57564 2.5 1.28571 2.5ZM6.10714 0.625C5.57459 0.625 5.14286 1.04474 5.14286 1.5625C5.14286 2.08026 5.57459 2.5 6.10714 2.5H17.0357C17.5683 2.5 18 2.08026 18 1.5625C18 1.04474 17.5683 0.625 17.0357 0.625H6.10714ZM6.10714 6.875C5.57459 6.875 5.14286 7.29474 5.14286 7.8125C5.14286 8.33026 5.57459 8.75 6.10714 8.75H17.0357C17.5683 8.75 18 8.33026 18 7.8125C18 7.29474 17.5683 6.875 17.0357 6.875H6.10714ZM6.10714 13.125C5.57459 13.125 5.14286 13.5448 5.14286 14.0625C5.14286 14.5802 5.57459 15 6.10714 15H17.0357C17.5683 15 18 14.5802 18 14.0625C18 13.5448 17.5683 13.125 17.0357 13.125H6.10714ZM2.57143 7.5C2.57143 8.19035 1.99579 8.75 1.28571 8.75C0.57564 8.75 0 8.19035 0 7.5C0 6.80965 0.57564 6.25 1.28571 6.25C1.99579 6.25 2.57143 6.80965 2.57143 7.5ZM1.28571 15C1.99579 15 2.57143 14.4404 2.57143 13.75C2.57143 13.0596 1.99579 12.5 1.28571 12.5C0.57564 12.5 0 13.0596 0 13.75C0 14.4404 0.57564 15 1.28571 15Z" fill="white"/>
</svg>
