<svg width="16" height="16" viewBox="0 0 16 16" fill="none" xmlns="http://www.w3.org/2000/svg">
<path d="M5.02862 2.21846C5.94786 1.74623 6.96656 1.50031 8 1.50116C9.60748 1.50115 11.158 2.0967 12.3521 3.17283C13.5462 4.24895 14.2993 5.72934 14.466 7.32816C14.4752 7.42685 14.5039 7.52273 14.5504 7.61027C14.5968 7.69781 14.6602 7.77527 14.7368 7.83817C14.8134 7.90107 14.9017 7.94816 14.9966 7.97672C15.0915 8.00528 15.1912 8.01475 15.2898 8.00457C15.3884 7.9944 15.484 7.96478 15.571 7.91743C15.6581 7.87009 15.7349 7.80595 15.7971 7.72873C15.8592 7.65151 15.9054 7.56274 15.933 7.46755C15.9607 7.37237 15.9692 7.27265 15.958 7.17416C15.7926 5.58021 15.1523 4.07268 14.12 2.8469C13.0878 1.62112 11.7112 0.733603 10.1687 0.29934C8.6261 -0.134923 6.98868 -0.0959113 5.46856 0.411319C3.94844 0.918549 2.61569 1.87062 1.643 3.14416L0.427 1.92816C0.392036 1.89311 0.34745 1.86922 0.298896 1.85954C0.250342 1.84986 0.200005 1.85481 0.154269 1.87377C0.108532 1.89273 0.069455 1.92484 0.0419907 1.96603C0.0145264 2.00723 -8.77856e-05 2.05565 3.96727e-07 2.10516V5.75116C3.96727e-07 5.81746 0.02634 5.88105 0.0732241 5.92794C0.120108 5.97482 0.183696 6.00116 0.25 6.00116H3.896C3.94551 6.00125 3.99393 5.98663 4.03513 5.95917C4.07632 5.93171 4.10843 5.89263 4.12739 5.84689C4.14635 5.80116 4.1513 5.75082 4.14162 5.70227C4.13194 5.65371 4.10805 5.60913 4.073 5.57416L2.715 4.21616C3.31618 3.37558 4.10938 2.69069 5.02862 2.21846Z" fill="white"/>
<path d="M1.26173 8.16996C1.10758 8.04432 0.909844 7.98504 0.712 8.00516C0.613948 8.01515 0.518827 8.04438 0.432076 8.09116C0.345325 8.13794 0.268645 8.20136 0.20642 8.27779C0.144195 8.35423 0.0976462 8.44218 0.0694339 8.53661C0.0412216 8.63105 0.0318996 8.73012 0.0420008 8.82816C0.207905 10.4219 0.848479 11.929 1.88076 13.1545C2.91305 14.3799 4.28948 15.2672 5.83181 15.7014C7.37414 16.1356 9.01131 16.0967 10.5313 15.5898C12.0513 15.0829 13.384 14.1313 14.357 12.8582L15.573 14.0742C15.608 14.1093 15.6525 14.1331 15.7011 14.1428C15.7497 14.1525 15.8 14.1476 15.8457 14.1286C15.8915 14.1096 15.9305 14.0775 15.958 14.0363C15.9855 13.9951 16.0001 13.9467 16 13.8972V10.2512C16 10.1849 15.9737 10.1213 15.9268 10.0744C15.8799 10.0275 15.8163 10.0012 15.75 10.0012H12.104C12.0545 10.0011 12.0061 10.0157 11.9649 10.0432C11.9237 10.0707 11.8916 10.1097 11.8726 10.1555C11.8536 10.2012 11.8487 10.2515 11.8584 10.3001C11.8681 10.3487 11.8919 10.3932 11.927 10.4282L13.285 11.7862C12.517 12.8585 11.4409 13.6717 10.1998 14.1181C8.95868 14.5644 7.61115 14.6226 6.33613 14.2851C5.06111 13.9475 3.91892 13.2301 3.06121 12.2282C2.20351 11.2262 1.67087 9.98699 1.534 8.67516C1.51381 8.47732 1.41587 8.2956 1.26173 8.16996Z" fill="white"/>
<path d="M9.06066 9.06182C8.77936 9.34312 8.39782 9.50116 8 9.50116C7.60218 9.50116 7.22064 9.34312 6.93934 9.06182C6.65804 8.78052 6.5 8.39898 6.5 8.00116C6.5 7.60333 6.65804 7.2218 6.93934 6.9405C7.22064 6.65919 7.60218 6.50116 8 6.50116C8.39782 6.50116 8.77936 6.65919 9.06066 6.9405C9.34196 7.2218 9.5 7.60333 9.5 8.00116C9.5 8.39898 9.34196 8.78052 9.06066 9.06182Z" fill="white"/>
</svg>
