<svg width="16" height="16" viewBox="0 0 16 16" fill="none" xmlns="http://www.w3.org/2000/svg">
<path d="M4.8 16C3.45185 16 2.31481 15.537 1.38889 14.6111C0.462963 13.6852 0 12.5481 0 11.2C0 10.637 0.0962963 10.0889 0.288889 9.55556C0.481482 9.02222 0.755556 8.54074 1.11111 8.11111L4.26667 4.31111L2.83472 1.44721C2.50227 0.782314 2.98576 0 3.72915 0H12.2709C13.0142 0 13.4977 0.782312 13.1653 1.44721L11.7333 4.31111L14.8889 8.11111C15.2444 8.54074 15.5185 9.02222 15.7111 9.55556C15.9037 10.0889 16 10.637 16 11.2C16 12.5481 15.5333 13.6852 14.6 14.6111C13.6667 15.537 12.5333 16 11.2 16H4.8ZM8 11.5556C7.51111 11.5556 7.09259 11.3815 6.74444 11.0333C6.3963 10.6852 6.22222 10.2667 6.22222 9.77778C6.22222 9.28889 6.3963 8.87037 6.74444 8.52222C7.09259 8.17407 7.51111 8 8 8C8.48889 8 8.90741 8.17407 9.25556 8.52222C9.6037 8.87037 9.77778 9.28889 9.77778 9.77778C9.77778 10.2667 9.6037 10.6852 9.25556 11.0333C8.90741 11.3815 8.48889 11.5556 8 11.5556ZM5.88889 3.55556H10.1111L11 1.77778H5L5.88889 3.55556ZM4.8 14.2222H11.2C12.0444 14.2222 12.7593 13.9296 13.3444 13.3444C13.9296 12.7593 14.2222 12.0444 14.2222 11.2C14.2222 10.8444 14.1593 10.5 14.0333 10.1667C13.9074 9.83333 13.7333 9.53333 13.5111 9.26667L10.2444 5.33333H5.77778L2.48889 9.24444C2.26667 9.51111 2.09259 9.81481 1.96667 10.1556C1.84074 10.4963 1.77778 10.8444 1.77778 11.2C1.77778 12.0444 2.07037 12.7593 2.65556 13.3444C3.24074 13.9296 3.95556 14.2222 4.8 14.2222Z" fill="#17171B"/>
</svg>
