<svg width="17" height="17" viewBox="0 0 17 17" fill="none" xmlns="http://www.w3.org/2000/svg">
<path fill-rule="evenodd" clip-rule="evenodd" d="M0.125 1.75C0.125 0.783501 0.908502 0 1.875 0H14.375C15.3415 0 16.125 0.783502 16.125 1.75V5.33528C16.204 5.45406 16.25 5.59666 16.25 5.75C16.25 5.90334 16.204 6.04594 16.125 6.16472V14.25C16.125 15.2165 15.3415 16 14.375 16H6.43403C6.2967 16.1534 6.09713 16.25 5.87501 16.25C5.65288 16.25 5.45331 16.1534 5.31598 16H1.875C0.908501 16 0.125 15.2165 0.125 14.25V6.16472C0.0460191 6.04594 0 5.90334 0 5.75C0 5.59666 0.0460191 5.45406 0.125 5.33528V1.75ZM1.625 6.5V14.25C1.625 14.3881 1.73693 14.5 1.875 14.5H5.12501L5.125 6.5H1.625ZM5.125 5H1.625V1.75C1.625 1.61193 1.73693 1.5 1.875 1.5H5.125L5.125 5ZM6.625 6.5L6.62501 14.5H14.375C14.5131 14.5 14.625 14.3881 14.625 14.25V6.5H6.625ZM14.625 5H6.625L6.625 1.5H14.375C14.5131 1.5 14.625 1.61193 14.625 1.75V5Z" fill="#24292E"/>
</svg>
