<svg width="16" height="16" viewBox="0 0 16 16" fill="none" xmlns="http://www.w3.org/2000/svg">
<path fill-rule="evenodd" clip-rule="evenodd" d="M3.5 4.25C3.5 3.83579 3.83579 3.5 4.25 3.5H11.25C11.6642 3.5 12 3.83579 12 4.25C12 4.66421 11.6642 5 11.25 5H4.25C3.83579 5 3.5 4.66421 3.5 4.25Z" fill="#17171B"/>
<path d="M3.5 7.25C3.5 6.83579 3.83579 6.5 4.25 6.5H6.7C6.46667 6.66667 5.9 7.2 5.5 8H4.25C3.83579 8 3.5 7.66421 3.5 7.25Z" fill="#17171B"/>
<path d="M1.75 0C0.783502 0 0 0.7835 0 1.75V10.25C0 11.2165 0.783501 12 1.75 12H5.2C5 11.5 5 10.8333 5 10.5H1.75C1.61193 10.5 1.5 10.3881 1.5 10.25V1.75C1.5 1.61193 1.61193 1.5 1.75 1.5H14.25C14.3881 1.5 14.5 1.61193 14.5 1.75V7.25C15.0287 7.77024 15.9274 9.37964 15.293 11.6554C15.722 11.3364 16 10.8257 16 10.25V1.75C16 0.7835 15.2165 0 14.25 0H1.75Z" fill="#17171B"/>
<path d="M12.4272 9.53269C12.592 9.36793 12.592 9.10082 12.4272 8.93606C12.2625 8.77131 11.9953 8.77131 11.8306 8.93606L9.59766 11.169L8.77097 10.3423C8.60621 10.1776 8.3391 10.1776 8.17435 10.3423C8.00959 10.5071 8.00959 10.7742 8.17435 10.9389L9.29935 12.0639C9.4641 12.2287 9.73121 12.2287 9.89597 12.0639L12.4272 9.53269Z" fill="#17171B"/>
<path fill-rule="evenodd" clip-rule="evenodd" d="M5.80078 10.5C5.80078 8.01472 7.8155 6 10.3008 6C12.7861 6 14.8008 8.01472 14.8008 10.5C14.8008 12.9853 12.7861 15 10.3008 15C7.8155 15 5.80078 12.9853 5.80078 10.5ZM6.64453 10.5C6.64453 8.48071 8.28149 6.84375 10.3008 6.84375C12.3201 6.84375 13.957 8.48071 13.957 10.5C13.957 12.5193 12.3201 14.1562 10.3008 14.1562C8.28149 14.1562 6.64453 12.5193 6.64453 10.5Z" fill="#17171B"/>
<path d="M12.4272 9.53269C12.592 9.36793 12.592 9.10082 12.4272 8.93606C12.2625 8.77131 11.9953 8.77131 11.8306 8.93606L9.59766 11.169L8.77097 10.3423C8.60621 10.1776 8.3391 10.1776 8.17435 10.3423C8.00959 10.5071 8.00959 10.7742 8.17435 10.9389L9.29935 12.0639C9.4641 12.2287 9.73121 12.2287 9.89597 12.0639L12.4272 9.53269Z" stroke="#17171B" stroke-width="0.3" stroke-linecap="round" stroke-linejoin="round"/>
<path fill-rule="evenodd" clip-rule="evenodd" d="M5.80078 10.5C5.80078 8.01472 7.8155 6 10.3008 6C12.7861 6 14.8008 8.01472 14.8008 10.5C14.8008 12.9853 12.7861 15 10.3008 15C7.8155 15 5.80078 12.9853 5.80078 10.5ZM6.64453 10.5C6.64453 8.48071 8.28149 6.84375 10.3008 6.84375C12.3201 6.84375 13.957 8.48071 13.957 10.5C13.957 12.5193 12.3201 14.1562 10.3008 14.1562C8.28149 14.1562 6.64453 12.5193 6.64453 10.5Z" stroke="#17171B" stroke-width="0.3" stroke-linecap="round" stroke-linejoin="round"/>
</svg>
