<svg width="89" height="80" viewBox="0 0 89 80" fill="none" xmlns="http://www.w3.org/2000/svg">
<circle cx="40" cy="40" r="40" fill="#CBDEFA"/>
<path d="M40 39.7944C37.5714 39.7944 35.5187 38.9343 33.8418 37.2142C32.165 35.4941 31.3265 33.3884 31.3265 30.8972C31.3265 28.406 32.165 26.3003 33.8418 24.5802C35.5187 22.8601 37.5714 22 40 22C42.4286 22 44.4813 22.8601 46.1582 24.5802C47.835 26.3003 48.6735 28.406 48.6735 30.8972C48.6735 33.3884 47.835 35.4941 46.1582 37.2142C44.4813 38.9343 42.4286 39.7944 40 39.7944ZM24.2172 57C23.587 57 23.1124 56.4233 23.2725 55.8138C24.21 52.2467 26.0996 49.2464 28.9413 46.8127C32.0927 44.1139 35.7789 42.7645 40 42.7645C44.2211 42.7645 47.9073 44.1139 51.0587 46.8127C53.9004 49.2464 55.79 52.2467 56.7275 55.8138C56.8876 56.4233 56.413 57 55.7828 57H24.2172Z" fill="white"/>
<circle cx="72" cy="63" r="17" fill="#3D8BFF"/>
<path fill-rule="evenodd" clip-rule="evenodd" d="M72.88 55.0139C71.5336 54.8607 70.534 55.9989 70.534 57.204V57.7063C70.534 59.0389 69.8839 59.8363 69.2096 60.3281C68.8797 60.5687 68.5458 60.7329 68.2862 60.8383C67.9816 60.3153 67.4141 59.9638 66.7644 59.9638H65.7592C64.7876 59.9638 64 60.7499 64 61.7195V69.2442C64 70.2139 64.7876 71 65.7592 71H66.7644C67.5432 71 68.2037 70.4949 68.4352 69.7951C68.9625 69.8702 69.5081 70.0245 70.1695 70.2114L70.1697 70.2115C70.322 70.2546 70.4805 70.2994 70.6464 70.3454C71.8064 70.6669 73.2005 70.9998 75.0576 70.9998C76.7722 70.9998 78.0428 70.847 78.7986 69.8569C79.1535 69.392 79.3384 68.8114 79.4709 68.1793C79.5888 67.6165 79.6798 66.9315 79.785 66.1391L79.8258 65.8321C80.0762 63.9575 80.0922 62.5032 79.6363 61.5021C79.391 60.9637 79.011 60.5564 78.4938 60.298C77.9969 60.0498 77.423 59.9637 76.8168 59.9637H75.387L75.4021 59.851V59.8509C75.4722 59.331 75.5602 58.6777 75.5602 58.2079C75.5602 57.2833 75.4081 56.4836 74.9012 55.9009C74.3872 55.31 73.6475 55.1012 72.88 55.0139ZM68.5236 68.2898C69.2326 68.3786 69.9214 68.5749 70.6065 68.7701H70.6065C70.7544 68.8122 70.9022 68.8544 71.0499 68.8953C72.1517 69.2008 73.3963 69.4949 75.0576 69.4949C76.8612 69.4949 77.3498 69.2715 77.5992 68.9449C77.7469 68.7513 77.8762 68.4383 77.995 67.8712C78.1007 67.3672 78.1835 66.7434 78.291 65.9349L78.3312 65.6331C78.5835 63.7453 78.5216 62.6914 78.2636 62.1249C78.1517 61.8794 78.0078 61.7381 77.8189 61.6438C77.6097 61.5393 77.2956 61.4686 76.8168 61.4686H75.0572C74.3684 61.4686 73.7558 60.8897 73.8457 60.1283C73.8684 59.9363 73.895 59.738 73.9215 59.5409C73.9874 59.0509 74.0523 58.5681 74.0523 58.2079C74.0523 57.3967 73.9072 57.0538 73.7626 56.8875C73.6252 56.7295 73.3591 56.5831 72.7093 56.5091C72.401 56.4741 72.0419 56.7469 72.0419 57.204V57.7063C72.0419 59.6343 71.0585 60.8435 70.0993 61.5431C69.6268 61.8878 69.1585 62.1119 68.8099 62.2502C68.7033 62.2924 68.6069 62.3271 68.5236 62.355V68.2898ZM66.7644 61.4687C66.9032 61.4687 67.0157 61.581 67.0157 61.7195V68.9932V69.2442C67.0157 69.3827 66.9032 69.4951 66.7644 69.4951H65.7592C65.6204 69.4951 65.5079 69.3827 65.5079 69.2442V61.7195C65.5079 61.581 65.6204 61.4687 65.7592 61.4687H66.7644Z" fill="white"/>
</svg>
