<svg width="89" height="80" viewBox="0 0 89 80" fill="none" xmlns="http://www.w3.org/2000/svg">
<circle cx="40" cy="40" r="40" fill="#CBDEFA"/>
<path d="M22.4 41.6927C20.8325 41.6927 19.4906 41.1152 18.3744 39.9603C17.2581 38.8053 16.7 37.4169 16.7 35.7951C16.7 34.1733 17.2581 32.7849 18.3744 31.63C19.4906 30.475 20.8325 29.8976 22.4 29.8976C23.9675 29.8976 25.3094 30.475 26.4256 31.63C27.5419 32.7849 28.1 34.1733 28.1 35.7951C28.1 37.4169 27.5419 38.8053 26.4256 39.9603C25.3094 41.1152 23.9675 41.6927 22.4 41.6927ZM56.6 41.6927C55.0325 41.6927 53.6906 41.1152 52.5744 39.9603C51.4581 38.8053 50.9 37.4169 50.9 35.7951C50.9 34.1733 51.4581 32.7849 52.5744 31.63C53.6906 30.475 55.0325 29.8976 56.6 29.8976C58.1675 29.8976 59.5094 30.475 60.6256 31.63C61.7419 32.7849 62.3 34.1733 62.3 35.7951C62.3 37.4169 61.7419 38.8053 60.6256 39.9603C59.5094 41.1152 58.1675 41.6927 56.6 41.6927ZM39.5 38.7439C37.505 38.7439 35.8187 38.0313 34.4412 36.606C33.0637 35.1808 32.375 33.4361 32.375 31.372C32.375 29.3078 33.0637 27.5631 34.4412 26.1379C35.8187 24.7126 37.505 24 39.5 24C41.495 24 43.1812 24.7126 44.5588 26.1379C45.9362 27.5631 46.625 29.3078 46.625 31.372C46.625 33.4361 45.9362 35.1808 44.5588 36.606C43.1812 38.0313 41.495 38.7439 39.5 38.7439ZM26.7501 55C26.1206 55 25.6458 54.4241 25.8124 53.8171C26.5997 50.9492 28.1341 48.5299 30.4156 46.5591C33.0044 44.323 36.0325 43.2049 39.5 43.2049C42.9675 43.2049 45.9956 44.323 48.5844 46.5591C50.8659 48.5299 52.4003 50.9492 53.1876 53.8171C53.3543 54.4241 52.8794 55 52.2499 55H26.7501ZM12 55C11.4477 55 10.9957 54.5514 11.0364 54.0006C11.2449 51.1824 12.349 48.7387 14.3487 46.6697C16.5812 44.3598 19.265 43.2049 22.4 43.2049C23.2075 43.2049 23.9675 43.2786 24.68 43.426C24.9148 43.4746 25.1469 43.5312 25.3765 43.5958C26.0524 43.7859 26.2133 44.6253 25.7559 45.158C24.7618 46.3158 23.9045 47.5937 23.1838 48.9919C22.3587 50.5924 21.7666 52.3133 21.4073 54.1548C21.3127 54.6392 20.8956 55 20.402 55H12ZM58.598 55C58.1044 55 57.6873 54.6392 57.5927 54.1548C57.2334 52.3133 56.6413 50.5924 55.8162 48.9919C55.0956 47.5937 54.2382 46.3158 53.2441 45.158C52.7867 44.6253 52.9476 43.7859 53.6235 43.5958C53.8531 43.5312 54.0852 43.4746 54.32 43.426C55.0325 43.2786 55.7925 43.2049 56.6 43.2049C59.735 43.2049 62.4188 44.3598 64.6512 46.6697C66.651 48.7387 67.7551 51.1824 67.9636 54.0006C68.0043 54.5514 67.5523 55 67 55H58.598Z" fill="white"/>
<circle cx="72" cy="63" r="17" fill="#3D8BFF"/>
<path fill-rule="evenodd" clip-rule="evenodd" d="M72.88 55.0139C71.5336 54.8607 70.534 55.9989 70.534 57.204V57.7063C70.534 59.0389 69.8839 59.8363 69.2096 60.3281C68.8797 60.5687 68.5458 60.7329 68.2862 60.8383C67.9816 60.3153 67.4141 59.9638 66.7644 59.9638H65.7592C64.7876 59.9638 64 60.7499 64 61.7195V69.2442C64 70.2139 64.7876 71 65.7592 71H66.7644C67.5432 71 68.2037 70.4949 68.4352 69.7951C68.9625 69.8702 69.5081 70.0245 70.1695 70.2114L70.1697 70.2115C70.322 70.2546 70.4805 70.2994 70.6464 70.3454C71.8064 70.6669 73.2005 70.9998 75.0576 70.9998C76.7722 70.9998 78.0428 70.847 78.7986 69.8569C79.1535 69.392 79.3384 68.8114 79.4709 68.1793C79.5888 67.6165 79.6798 66.9315 79.785 66.1391L79.8258 65.8321C80.0762 63.9575 80.0922 62.5032 79.6363 61.5021C79.391 60.9637 79.011 60.5564 78.4938 60.298C77.9969 60.0498 77.423 59.9637 76.8168 59.9637H75.387L75.4021 59.851V59.8509C75.4722 59.331 75.5602 58.6777 75.5602 58.2079C75.5602 57.2833 75.4081 56.4836 74.9012 55.9009C74.3872 55.31 73.6475 55.1012 72.88 55.0139ZM68.5236 68.2898C69.2326 68.3786 69.9214 68.5749 70.6065 68.7701H70.6065C70.7544 68.8122 70.9022 68.8544 71.0499 68.8953C72.1517 69.2008 73.3963 69.4949 75.0576 69.4949C76.8612 69.4949 77.3498 69.2715 77.5992 68.9449C77.7469 68.7513 77.8762 68.4383 77.995 67.8712C78.1007 67.3672 78.1835 66.7434 78.291 65.9349L78.3312 65.6331C78.5835 63.7453 78.5216 62.6914 78.2636 62.1249C78.1517 61.8794 78.0078 61.7381 77.8189 61.6438C77.6097 61.5393 77.2956 61.4686 76.8168 61.4686H75.0572C74.3684 61.4686 73.7558 60.8897 73.8457 60.1283C73.8684 59.9363 73.895 59.738 73.9215 59.5409C73.9874 59.0509 74.0523 58.5681 74.0523 58.2079C74.0523 57.3967 73.9072 57.0538 73.7626 56.8875C73.6252 56.7295 73.3591 56.5831 72.7093 56.5091C72.401 56.4741 72.0419 56.7469 72.0419 57.204V57.7063C72.0419 59.6343 71.0585 60.8435 70.0993 61.5431C69.6268 61.8878 69.1585 62.1119 68.8099 62.2502C68.7033 62.2924 68.6069 62.3271 68.5236 62.355V68.2898ZM66.7644 61.4687C66.9032 61.4687 67.0157 61.581 67.0157 61.7195V68.9932V69.2442C67.0157 69.3827 66.9032 69.4951 66.7644 69.4951H65.7592C65.6204 69.4951 65.5079 69.3827 65.5079 69.2442V61.7195C65.5079 61.581 65.6204 61.4687 65.7592 61.4687H66.7644Z" fill="white"/>
</svg>
