<svg width="89" height="80" viewBox="0 0 89 80" fill="none" xmlns="http://www.w3.org/2000/svg">
<circle cx="40" cy="40" r="40" fill="#CBDEFA"/>
<path d="M50.651 41.8341C48.953 41.8341 47.4994 41.2194 46.2903 39.99C45.0811 38.7605 44.4765 37.2826 44.4765 35.5561C44.4765 33.8296 45.0811 32.3517 46.2903 31.1222C47.4994 29.8928 48.953 29.278 50.651 29.278C52.349 29.278 53.8026 29.8928 55.0117 31.1222C56.2209 32.3517 56.8255 33.8296 56.8255 35.5561C56.8255 37.2826 56.2209 38.7605 55.0117 39.99C53.8026 41.2194 52.349 41.8341 50.651 41.8341ZM32.1275 38.6951C29.9664 38.6951 28.1398 37.9365 26.6476 36.4193C25.1555 34.9021 24.4094 33.0449 24.4094 30.8476C24.4094 28.6502 25.1555 26.793 26.6476 25.2758C28.1398 23.7586 29.9664 23 32.1275 23C34.2886 23 36.1152 23.7586 37.6074 25.2758C39.0996 26.793 39.8456 28.6502 39.8456 30.8476C39.8456 33.0449 39.0996 34.9021 37.6074 36.4193C36.1152 37.9365 34.2886 38.6951 32.1275 38.6951ZM18.2193 56C17.5884 56 17.1134 55.4218 17.2804 54.8134C18.127 51.7287 19.7959 49.1291 22.2869 47.0145C25.0912 44.6341 28.3714 43.4439 32.1275 43.4439C35.8837 43.4439 39.1639 44.6341 41.9681 47.0145C44.4592 49.1291 46.128 51.7287 46.9747 54.8134C47.1417 55.4218 46.6666 56 46.0358 56H18.2193ZM52.7416 56C52.249 56 51.8323 55.6407 51.7376 55.1573C51.3496 53.1755 50.7044 51.3245 49.802 49.6042C49.0082 48.0908 48.0612 46.7097 46.9611 45.4609C46.4928 44.9292 46.6546 44.0801 47.336 43.8855C47.6142 43.8061 47.896 43.7373 48.1812 43.6793C48.953 43.5224 49.7763 43.4439 50.651 43.4439C54.047 43.4439 56.9541 44.6734 59.3725 47.1323C61.5542 49.3506 62.7518 51.9734 62.9653 55.0007C63.0041 55.5516 62.5523 56 62 56H52.7416Z" fill="white"/>
<circle cx="72" cy="63" r="17" fill="#3D8BFF"/>
<path fill-rule="evenodd" clip-rule="evenodd" d="M72.88 55.0139C71.5336 54.8607 70.534 55.9989 70.534 57.204V57.7063C70.534 59.0389 69.8839 59.8363 69.2096 60.3281C68.8797 60.5687 68.5458 60.7329 68.2862 60.8383C67.9816 60.3153 67.4141 59.9638 66.7644 59.9638H65.7592C64.7876 59.9638 64 60.7499 64 61.7195V69.2442C64 70.2139 64.7876 71 65.7592 71H66.7644C67.5432 71 68.2037 70.4949 68.4352 69.7951C68.9625 69.8702 69.5081 70.0245 70.1695 70.2114L70.1697 70.2115C70.322 70.2546 70.4805 70.2994 70.6464 70.3454C71.8064 70.6669 73.2005 70.9998 75.0576 70.9998C76.7722 70.9998 78.0428 70.847 78.7986 69.8569C79.1535 69.392 79.3384 68.8114 79.4709 68.1793C79.5888 67.6165 79.6798 66.9315 79.785 66.1391L79.8258 65.8321C80.0762 63.9575 80.0922 62.5032 79.6363 61.5021C79.391 60.9637 79.011 60.5564 78.4938 60.298C77.9969 60.0498 77.423 59.9637 76.8168 59.9637H75.387L75.4021 59.851V59.8509C75.4722 59.331 75.5602 58.6777 75.5602 58.2079C75.5602 57.2833 75.4081 56.4836 74.9012 55.9009C74.3872 55.31 73.6475 55.1012 72.88 55.0139ZM68.5236 68.2898C69.2326 68.3786 69.9214 68.5749 70.6065 68.7701H70.6065C70.7544 68.8122 70.9022 68.8544 71.0499 68.8953C72.1517 69.2008 73.3963 69.4949 75.0576 69.4949C76.8612 69.4949 77.3498 69.2715 77.5992 68.9449C77.7469 68.7513 77.8762 68.4383 77.995 67.8712C78.1007 67.3672 78.1835 66.7434 78.291 65.9349L78.3312 65.6331C78.5835 63.7453 78.5216 62.6914 78.2636 62.1249C78.1517 61.8794 78.0078 61.7381 77.8189 61.6438C77.6097 61.5393 77.2956 61.4686 76.8168 61.4686H75.0572C74.3684 61.4686 73.7558 60.8897 73.8457 60.1283C73.8684 59.9363 73.895 59.738 73.9215 59.5409C73.9874 59.0509 74.0523 58.5681 74.0523 58.2079C74.0523 57.3967 73.9072 57.0538 73.7626 56.8875C73.6252 56.7295 73.3591 56.5831 72.7093 56.5091C72.401 56.4741 72.0419 56.7469 72.0419 57.204V57.7063C72.0419 59.6343 71.0585 60.8435 70.0993 61.5431C69.6268 61.8878 69.1585 62.1119 68.8099 62.2502C68.7033 62.2924 68.6069 62.3271 68.5236 62.355V68.2898ZM66.7644 61.4687C66.9032 61.4687 67.0157 61.581 67.0157 61.7195V68.9932V69.2442C67.0157 69.3827 66.9032 69.4951 66.7644 69.4951H65.7592C65.6204 69.4951 65.5079 69.3827 65.5079 69.2442V61.7195C65.5079 61.581 65.6204 61.4687 65.7592 61.4687H66.7644Z" fill="white"/>
</svg>
